<svg width="34" height="34" viewBox="0 0 34 34" fill="none" xmlns="http://www.w3.org/2000/svg">
<rect x="0.600098" y="0.600098" width="32" height="32" rx="16" stroke="white" stroke-width="1.2"/>
<path d="M23.6003 7.6001C24.1308 7.6001 24.6395 7.81081 25.0146 8.18588C25.3896 8.56096 25.6003 9.06966 25.6003 9.6001V23.6001C25.6003 24.1305 25.3896 24.6392 25.0146 25.0143C24.6395 25.3894 24.1308 25.6001 23.6003 25.6001H9.60034C9.06991 25.6001 8.5612 25.3894 8.18613 25.0143C7.81106 24.6392 7.60034 24.1305 7.60034 23.6001V9.6001C7.60034 9.06966 7.81106 8.56096 8.18613 8.18588C8.5612 7.81081 9.06991 7.6001 9.60034 7.6001H23.6003ZM23.1003 23.1001V17.8001C23.1003 16.9355 22.7569 16.1063 22.1455 15.4949C21.5341 14.8836 20.7049 14.5401 19.8403 14.5401C18.9903 14.5401 18.0003 15.0601 17.5203 15.8401V14.7301H14.7303V23.1001H17.5203V18.1701C17.5203 17.4001 18.1403 16.7701 18.9103 16.7701C19.2816 16.7701 19.6377 16.9176 19.9003 17.1801C20.1628 17.4427 20.3103 17.7988 20.3103 18.1701V23.1001H23.1003ZM11.4803 13.1601C11.9259 13.1601 12.3532 12.9831 12.6683 12.668C12.9833 12.353 13.1603 11.9257 13.1603 11.4801C13.1603 10.5501 12.4103 9.7901 11.4803 9.7901C11.0321 9.7901 10.6023 9.96815 10.2853 10.2851C9.96839 10.602 9.79034 11.0319 9.79034 11.4801C9.79034 12.4101 10.5503 13.1601 11.4803 13.1601ZM12.8703 23.1001V14.7301H10.1003V23.1001H12.8703Z" fill="white"/>
</svg>
